<?xml version="1.0" encoding="UTF-8"?>
<svg height="1000.0" width="1000.0" xmlns="http://www.w3.org/2000/svg">
 <g>
  <line points="66.332 59.319 475.537 59.319" signature="ML" x1="66.332" y1="59.319" x2="475.537" y2="59.319" id="line.0" style="clip-path:url(#clipPath1);fill:none;stroke:#000000;stroke-width:0.469;"/>
  <line points="66.462 241.748 475.403 241.748" signature="ML" x1="66.462" y1="241.748" x2="475.403" y2="241.748" id="line.1" style="clip-path:url(#clipPath1);fill:none;stroke:#000000;stroke-width:0.234;"/>
  <line points="172.313 87.123 319.165 87.123" signature="ML" x1="172.313" y1="87.123" x2="319.165" y2="87.123" id="line.2" style="clip-path:url(#clipPath1);fill:none;stroke:#000000;stroke-width:0.234;"/>
  <line points="328.55 87.123 475.403 87.123" signature="ML" x1="328.55" y1="87.123" x2="475.403" y2="87.123" id="line.3" style="clip-path:url(#clipPath1);fill:none;stroke:#000000;stroke-width:0.234;"/>
  <line points="66.462 97.33 475.403 97.33" signature="ML" x1="66.462" y1="97.33" x2="475.403" y2="97.33" id="line.4" style="clip-path:url(#clipPath1);fill:none;stroke:#000000;stroke-width:0.234;"/>
  <line points="66.462 106.95 475.403 106.95" signature="ML" x1="66.462" y1="106.95" x2="475.403" y2="106.95" id="line.5" style="clip-path:url(#clipPath1);fill:none;stroke:#000000;stroke-width:0.093;"/>
  <line points="66.462 116.57 475.403 116.57" signature="ML" x1="66.462" y1="116.57" x2="475.403" y2="116.57" id="line.6" style="clip-path:url(#clipPath1);fill:none;stroke:#000000;stroke-width:0.093;"/>
  <line points="66.462 126.19 475.403 126.19" signature="ML" x1="66.462" y1="126.19" x2="475.403" y2="126.19" id="line.7" style="clip-path:url(#clipPath1);fill:none;stroke:#000000;stroke-width:0.093;"/>
  <line points="66.462 135.81 475.403 135.81" signature="ML" x1="66.462" y1="135.81" x2="475.403" y2="135.81" id="line.8" style="clip-path:url(#clipPath1);fill:none;stroke:#000000;stroke-width:0.093;"/>
  <line points="66.462 145.43 475.403 145.43" signature="ML" x1="66.462" y1="145.43" x2="475.403" y2="145.43" id="line.9" style="clip-path:url(#clipPath1);fill:none;stroke:#000000;stroke-width:0.093;"/>
  <line points="66.462 155.05 475.403 155.05" signature="ML" x1="66.462" y1="155.05" x2="475.403" y2="155.05" id="line.10" style="clip-path:url(#clipPath1);fill:none;stroke:#000000;stroke-width:0.093;"/>
  <line points="66.462 164.671 475.403 164.671" signature="ML" x1="66.462" y1="164.671" x2="475.403" y2="164.671" id="line.11" style="clip-path:url(#clipPath1);fill:none;stroke:#000000;stroke-width:0.093;"/>
  <line points="66.462 174.29 475.403 174.29" signature="ML" x1="66.462" y1="174.29" x2="475.403" y2="174.29" id="line.12" style="clip-path:url(#clipPath1);fill:none;stroke:#000000;stroke-width:0.093;"/>
  <line points="66.462 183.91 475.403 183.91" signature="ML" x1="66.462" y1="183.91" x2="475.403" y2="183.91" id="line.13" style="clip-path:url(#clipPath1);fill:none;stroke:#000000;stroke-width:0.093;"/>
  <line points="66.462 193.531 475.403 193.531" signature="ML" x1="66.462" y1="193.531" x2="475.403" y2="193.531" id="line.14" style="clip-path:url(#clipPath1);fill:none;stroke:#000000;stroke-width:0.093;"/>
  <line points="66.462 203.15 475.403 203.15" signature="ML" x1="66.462" y1="203.15" x2="475.403" y2="203.15" id="line.15" style="clip-path:url(#clipPath1);fill:none;stroke:#000000;stroke-width:0.093;"/>
  <line points="66.462 212.77 475.403 212.77" signature="ML" x1="66.462" y1="212.77" x2="475.403" y2="212.77" id="line.16" style="clip-path:url(#clipPath1);fill:none;stroke:#000000;stroke-width:0.093;"/>
  <line points="66.462 222.391 475.403 222.391" signature="ML" x1="66.462" y1="222.391" x2="475.403" y2="222.391" id="line.17" style="clip-path:url(#clipPath1);fill:none;stroke:#000000;stroke-width:0.093;"/>
  <line points="66.462 232.01 475.403 232.01" signature="ML" x1="66.462" y1="232.01" x2="475.403" y2="232.01" id="line.18" style="clip-path:url(#clipPath1);fill:none;stroke:#000000;stroke-width:0.093;"/>
 </g>
</svg>
